<svg width="20" height="20" version="1.1" viewBox="0 0 20 20">
<g id="ic_contact">
    <path xmlns="http://www.w3.org/2000/svg" d="M16.7638 14.1361L14.367 16.5137C14.0132 16.8765 13.5442 16.9994 13.0875 17C11.0677 16.9395 9.15861 15.9474 7.5911 14.9286C5.01812 13.0568 2.6573 10.7358 1.17561 7.93095C0.607328 6.75479 -0.0594691 5.2541 0.00423838 3.94129C0.00991922 3.44744 0.143001 2.96276 0.490807 2.64443L2.88761 0.248836C3.38531 -0.174507 3.86662 -0.028137 4.18512 0.464976L6.11336 4.12142C6.31631 4.5546 6.19989 5.01872 5.89709 5.32825L5.01405 6.21083C4.95954 6.28551 4.92483 6.37051 4.92395 6.46302C5.26256 7.77374 6.28839 8.98184 7.1946 9.81323C8.1008 10.6446 9.07487 11.771 10.3393 12.0377C10.4956 12.0813 10.687 12.0966 10.7988 11.9927L11.826 10.948C12.1801 10.6796 12.6914 10.5484 13.0695 10.7679H13.0875L16.5655 12.8212C17.0761 13.1413 17.1294 13.7598 16.7638 14.1361Z" />
  </g>
</svg>