<svg width="20" height="20" version="1.1" viewBox="0 0 20 20">

<g xmlns="http://www.w3.org/2000/svg">
    <path d="M11.9997 4.00002H10.333C10.333 2.15835 8.84134 0.666687 6.99967 0.666687C5.15801 0.666687 3.66634 2.15835 3.66634 4.00002H1.99967C1.08301 4.00002 0.333008 4.75002 0.333008 5.66669V15.6667C0.333008 16.5834 1.08301 17.3334 1.99967 17.3334H11.9997C12.9163 17.3334 13.6663 16.5834 13.6663 15.6667V5.66669C13.6663 4.75002 12.9163 4.00002 11.9997 4.00002ZM6.99967 2.33335C7.91634 2.33335 8.66634 3.08335 8.66634 4.00002H5.33301C5.33301 3.08335 6.08301 2.33335 6.99967 2.33335ZM11.9997 15.6667H1.99967V5.66669H3.66634V7.33335C3.66634 7.79169 4.04134 8.16669 4.49967 8.16669C4.95801 8.16669 5.33301 7.79169 5.33301 7.33335V5.66669H8.66634V7.33335C8.66634 7.79169 9.04134 8.16669 9.49967 8.16669C9.95801 8.16669 10.333 7.79169 10.333 7.33335V5.66669H11.9997V15.6667Z"/>
  </g>
</svg>