<svg width="20" height="20" version="1.1" viewBox="0 0 20 20">
<g id="ic_shop">
    <path xmlns="http://www.w3.org/2000/svg" fill-rule="evenodd" clip-rule="evenodd" d="M7.12515 16.5934C7.10767 16.5934 7.09349 16.6075 7.09349 16.625C7.09349 16.6425 7.10767 16.6567 7.12515 16.6567C7.14264 16.6567 7.15682 16.6425 7.15682 16.625C7.15682 16.6075 7.14264 16.5934 7.12515 16.5934ZM5.57349 16.625C5.57349 15.7681 6.26819 15.0734 7.12515 15.0734C7.98212 15.0734 8.67682 15.7681 8.67682 16.625C8.67682 17.482 7.98212 18.1767 7.12515 18.1767C6.26819 18.1767 5.57349 17.482 5.57349 16.625Z"/>
    <path xmlns="http://www.w3.org/2000/svg" fill-rule="evenodd" clip-rule="evenodd" d="M15.8334 16.5934C15.8159 16.5934 15.8017 16.6075 15.8017 16.625C15.8017 16.6425 15.8159 16.6567 15.8334 16.6567C15.8509 16.6567 15.8651 16.6425 15.8651 16.625C15.8651 16.6075 15.8509 16.5934 15.8334 16.5934ZM14.2817 16.625C14.2817 15.7681 14.9764 15.0734 15.8334 15.0734C16.6904 15.0734 17.3851 15.7681 17.3851 16.625C17.3851 17.482 16.6904 18.1767 15.8334 18.1767C14.9764 18.1767 14.2817 17.482 14.2817 16.625Z"/>
    <path xmlns="http://www.w3.org/2000/svg" fill-rule="evenodd" clip-rule="evenodd" d="M0.0317383 0.791677C0.0317383 0.371941 0.372002 0.0316772 0.791738 0.0316772H3.9584C4.32064 0.0316772 4.63253 0.28733 4.70362 0.642522L5.37362 3.99001H18.2084C18.4349 3.99001 18.6496 4.09104 18.794 4.26555C18.9384 4.44007 18.9974 4.66989 18.955 4.89238L17.6872 11.5402C17.5801 12.0796 17.2866 12.5641 16.8582 12.909C16.4319 13.2522 15.8989 13.4353 15.3519 13.4267H7.66991C7.12286 13.4353 6.58995 13.2522 6.16364 12.909C5.73544 12.5643 5.44205 12.08 5.33478 11.5409C5.33473 11.5407 5.33468 11.5404 5.33463 11.5402L4.01208 4.93232C4.00683 4.911 4.00248 4.88933 3.99907 4.86734L3.33545 1.55168H0.791738C0.372002 1.55168 0.0317383 1.21141 0.0317383 0.791677ZM5.67785 5.51001L6.82551 11.244C6.86315 11.4336 6.96626 11.6038 7.11678 11.725C7.2673 11.8462 7.45565 11.9105 7.64884 11.9068L7.6634 11.9067H15.3584L15.373 11.9068C15.5662 11.9105 15.7545 11.8462 15.905 11.725C16.0549 11.6043 16.1578 11.435 16.1958 11.2464C16.196 11.2456 16.1961 11.2448 16.1963 11.244L17.2898 5.51001H5.67785Z"/>
  </g>
</svg>