<svg width="20" height="20" version="1.1" viewBox="0 0 20 20">
<g id="ic_wallet">
    <path xmlns="http://www.w3.org/2000/svg" fill-rule="evenodd" clip-rule="evenodd" d="M14.0109 0.0493073C14.4195 -0.0281153 14.84 -0.0142273 15.2427 0.0900282C15.6477 0.194876 16.0247 0.388536 16.3469 0.657191C16.6691 0.925846 16.9285 1.26287 17.1066 1.64423C17.2848 2.02558 17.3772 2.44186 17.3773 2.86337V3.5148C18.6657 3.74745 19.6436 4.88295 19.6436 6.24867V14.5811C19.6436 16.1151 18.41 17.3586 16.8882 17.3586H3.11154C1.58981 17.3586 0.356202 16.1151 0.356202 14.5811V6.94303V6.24867V4.81673V4.81652C0.355862 4.14973 0.586311 3.50371 1.00783 2.98982C1.42945 2.47582 2.01579 2.12624 2.66573 2.00139L2.67878 1.99901L14.0109 0.0493073ZM15.9996 2.86381V3.47118H3.11154C2.87819 3.47118 2.65161 3.50042 2.43521 3.55546C2.5826 3.46481 2.7458 3.40049 2.91775 3.36673L14.2488 1.41721L14.2619 1.41483C14.4735 1.37418 14.6913 1.38111 14.9 1.43512C15.1086 1.48914 15.3029 1.5889 15.4688 1.7273C15.6348 1.8657 15.7685 2.03932 15.8602 2.23577C15.9519 2.43216 15.9995 2.64653 15.9996 2.86359V2.86381ZM1.73387 6.24867L1.73387 6.24777C1.73435 5.4812 2.35097 4.85992 3.11154 4.85992H16.8882C17.6491 4.85992 18.2659 5.48168 18.2659 6.24867V14.5811C18.2659 15.3481 17.6491 15.9699 16.8882 15.9699H3.11154C2.35068 15.9699 1.73387 15.3481 1.73387 14.5811L1.73387 6.94303L1.73387 6.24867ZM14.0564 11.5696C14.283 11.7222 14.5494 11.8037 14.8218 11.8037C15.1872 11.8037 15.5376 11.6574 15.796 11.3969C16.0544 11.1365 16.1995 10.7833 16.1995 10.4149C16.1995 10.1403 16.1187 9.87177 15.9673 9.64339C15.8159 9.41501 15.6008 9.23701 15.349 9.1319C15.0973 9.02679 14.8203 8.99929 14.5531 9.05287C14.2858 9.10646 14.0403 9.23872 13.8477 9.43294C13.655 9.62716 13.5238 9.87461 13.4706 10.144C13.4175 10.4134 13.4448 10.6926 13.549 10.9464C13.6533 11.2001 13.8299 11.417 14.0564 11.5696Z"/>
  </g>
</svg>